<svg xmlns="http://www.w3.org/2000/svg" viewBox="0 0 100 100" width="100" height="100">
  <rect width="100" height="100" rx="22" fill="#c8501e" />
  <rect x="5" y="5" width="90" height="90" rx="17" fill="none" stroke="#1f4d3a" stroke-width="6" />
  <g transform="translate(11 14) scale(0.74)">
    <path fill="#fffaef" d="M54 8 C54 24 64 28 60 40 C72 34 74 50 66 58 C84 62 82 86 58 92 C53 94 47 94 42 91 C20 82 22 58 36 52 C30 44 33 30 44 33 C46 24 50 16 54 8 Z" />
    <path fill="#d99a1c" d="M52 50 C52 60 58 63 55 72 C64 68 63 84 52 88 C48 90 44 89 42 86 C34 80 38 65 47 63 C49 58 49 54 52 50 Z" />
  </g>
</svg>
