<svg xmlns="http://www.w3.org/2000/svg" viewBox="0 0 100 100" width="100" height="100">
  <defs>
    <linearGradient id="bg" x1="0" y1="0" x2="1" y2="1">
      <stop offset="0" stop-color="#ff9a3d"/>
      <stop offset="0.5" stop-color="#ff4d8d"/>
      <stop offset="1" stop-color="#7b5cff"/>
    </linearGradient>
  </defs>
  <rect width="100" height="100" rx="22" fill="url(#bg)"/>
  <path fill="#ffffff" d="M50 14
    C 64 34, 75 44, 66 60
    C 80 58, 80 80, 64 88
    C 58 91, 53 92, 50 92
    C 39 92, 25 84, 25 65
    C 25 51, 38 49, 41 39
    C 44 30, 47 24, 50 14 Z"/>
  <path fill="#ffd23f" d="M50 54
    C 58 63, 61 69, 57 75
    C 65 73, 64 85, 55 88
    C 51 90, 47 90, 45 88
    C 39 85, 39 76, 45 72
    C 49 69, 49 61, 50 54 Z"/>
</svg>
